<svg xmlns="http://www.w3.org/2000/svg" version="1.1" xmlns:xlink="http://www.w3.org/1999/xlink" width="512" height="512" x="0" y="0" viewBox="0 0 16.933 16.933" style="enable-background:new 0 0 512 512" xml:space="preserve" class=""><g><path d="M3.969.529a3.44 3.44 0 0 0-1.963.615c-.3.2.01.646.301.435a2.91 2.91 0 1 1-.728.727c.212-.291-.235-.601-.434-.301A3.44 3.44 0 1 0 3.969.529zm0 1.055c-.133 0-.265.088-.265.265v.304a1.06 1.06 0 0 0-.793 1.021 1.06 1.06 0 0 0 1.057 1.058c.295 0 .529.234.529.53 0 .295-.234.53-.53.53a.524.524 0 0 1-.526-.53c.008-.361-.538-.361-.53 0 0 .49.34.902.793 1.02v.302c0 .353.53.353.53 0v-.302c.453-.12.793-.531.793-1.02 0-.582-.478-1.059-1.06-1.059a.523.523 0 0 1-.526-.529c0-.295.231-.53.527-.53.295 0 .529.235.529.53 0 .353.53.353.53 0 0-.49-.34-.901-.794-1.02v-.305c0-.177-.132-.265-.264-.265zm8.995.531h1.514c-.639.809-5.862 7.145-12.891 7.145-.36-.008-.36.537 0 .53 7.035 0 12.228-6.003 13.23-7.248v1.427c.009.345.522.345.53 0V1.852a.265.265 0 0 0-.266-.264h-2.13c-.337.04-.314.518.013.527zM.794 16.405H16.14c.36.007.36-.538 0-.53h-.793V9.26a.265.265 0 1 0-.53 0v6.615H13.23V7.408h1.588v.793c0 .353.529.353.529 0V7.143a.265.265 0 0 0-.266-.264h-2.117a.265.265 0 0 0-.264.264v8.732h-1.058V9.26a.265.265 0 0 0-.264-.263h-2.13a.266.266 0 0 0-.253.263v6.615H7.936v-4.498a.265.265 0 0 0-.263-.265H5.556a.265.265 0 0 0-.264.265v4.498H4.233v-2.38a.265.265 0 0 0-.265-.266H1.853a.265.265 0 0 0-.266.265v2.381H.78c-.357.026-.331.539.014.53zm8.73-6.88h1.589v6.35H9.524zm-3.703 2.116H7.41v4.234H5.821zm-3.705 2.117h1.588v2.117H2.116z" fill="#f09119" opacity="1" data-original="#000000" class=""></path></g></svg>